<?xml version="1.0" encoding="UTF-8" standalone="no"?>
<!-- Created with Inkscape (http://www.inkscape.org/) -->

<svg
   width="53.135895mm"
   height="101.17194mm"
   viewBox="0 0 53.135895 101.17194"
   version="1.1"
   id="svg5"
   xmlns="http://www.w3.org/2000/svg"
   xmlns:svg="http://www.w3.org/2000/svg">
  <defs
     id="defs2" />
  <g
     id="layer1"
     transform="translate(-80.858633,-97.421804)">
    <path
       style="fill:#000000;stroke-width:0.702803"
       d="m 103.57213,196.66087 c -0.5545,-1.06299 -0.9888,-3.35588 -0.96509,-5.09532 l 0.0431,-3.16262 0.88053,3.26901 c 0.93533,3.47248 2.87113,6.92164 3.88467,6.92164 0.33596,0 0.0124,-1.17378 -0.71901,-2.60841 -0.73141,-1.43463 -1.32984,-3.2482 -1.32984,-4.03016 0,-1.06857 0.32125,-0.82273 1.29324,0.98966 0.71129,1.32626 1.73914,2.54684 2.28412,2.7124 0.79744,0.24225 0.81938,0.11923 0.11236,-0.63021 -1.23154,-1.30544 -1.1001,-2.41172 0.16209,-1.36419 0.84326,0.69984 1.61348,0.52788 4.06162,-0.90682 2.87498,-1.68486 3.54376,-2.64363 6.71313,-9.62394 0.77383,-1.70432 0.78492,-1.69378 0.36975,0.3514 l -0.42802,2.10841 2.13738,-2.00066 c 1.30573,-1.22221 2.45736,-3.27141 2.95975,-5.2666 0.77759,-3.08806 0.73342,-3.32362 -0.8108,-4.32458 -2.7885,-1.80751 -4.52672,-4.05656 -5.40767,-6.99691 -1.19037,-3.97311 -3.57732,-6.45327 -7.5611,-7.85638 -1.88432,-0.66366 -2.78146,-1.23118 -1.99365,-1.26114 0.78782,-0.0299 2.84352,0.65712 4.56823,1.52684 2.62854,1.3255 3.57311,2.41595 5.83895,6.74074 2.12962,4.0648 3.21261,5.37232 5.10454,6.16282 2.09208,0.87412 2.65962,0.86985 4.40584,-0.0332 1.97648,-1.02208 3.7513,-3.89033 4.65764,-7.52716 0.43368,-1.74017 0.20822,-1.95607 -3.48618,-3.33832 -2.17242,-0.81278 -4.20348,-1.4778 -4.51348,-1.4778 -0.30999,0 -0.92387,0.79065 -1.36417,1.757 -0.4403,0.96636 -1.22224,1.75701 -1.73765,1.75701 -0.51541,0 -1.63701,-0.94667 -2.49246,-2.10372 -2.25665,-3.05228 -4.82602,-4.50087 -8.85828,-4.99421 l -3.55537,-0.435 2.94116,-0.099 c 1.61765,-0.0544 3.76005,0.21239 4.76091,0.59291 1.62532,0.61795 1.96782,0.449 3.20574,-1.58131 0.7623,-1.25024 1.38718,-1.94822 1.38862,-1.55105 10e-4,0.39718 -0.48828,1.42301 -1.08829,2.27964 -1.02486,1.4632 -0.95391,1.728 1.17183,4.3732 1.24452,1.54863 2.52006,2.81569 2.83454,2.81569 0.31448,0 0.77023,-0.79066 1.01277,-1.75701 0.24254,-0.96635 0.88109,-1.75701 1.419,-1.75701 1.23402,0 1.22902,-0.98765 -0.027,-5.31917 -0.55274,-1.90622 -1.1062,-4.25652 -1.2299,-5.22288 -0.21559,-1.6841 -0.29451,-1.64507 -1.902,0.94072 -1.15648,1.8603 -1.84572,2.42487 -2.22033,1.81873 -0.41785,-0.67608 -0.81293,-0.60933 -1.71144,0.28919 -0.6425,0.6425 -1.62951,1.16818 -2.19337,1.16818 -0.56385,0 -2.92067,-0.79779 -5.23736,-1.77288 -3.40395,-1.4327 -4.49578,-1.62111 -5.69015,-0.9819 -1.09569,0.58639 -1.92828,0.58581 -3.21898,-0.002 -1.4482,-0.65985 -2.393105,-0.49471 -5.618455,0.9819 -2.132586,0.97631 -4.449154,1.77513 -5.147916,1.77513 -0.698763,0 -1.765035,-0.49455 -2.369493,-1.09901 -0.604457,-0.60446 -1.41283,-0.90507 -1.796383,-0.66802 -0.383553,0.23705 -1.289215,-0.54222 -2.012583,-1.7317 l -1.315214,-2.16269 -1.580334,8.47823 c -0.984177,5.27994 -1.40577,9.46297 -1.11759,11.08865 0.513567,2.89714 3.827306,9.98986 4.667287,9.98986 0.294992,0 0.672545,-0.55346 0.839007,-1.22991 0.166462,-0.67645 0.309822,1.04331 0.318577,3.82167 0.01217,3.8628 0.357157,5.59939 1.465967,7.37944 0.797527,1.28032 2.092111,2.7206 2.876855,3.20063 1.343326,0.82171 1.402169,0.73947 1.005727,-1.40561 -0.395892,-2.1421 -0.258006,-2.0492 2.305216,1.5531 2.520107,3.54172 7.994862,8.46758 9.411112,8.46758 0.33357,0 0.1528,-0.86972 -0.40171,-1.93271 z M 91.020015,157.92968 c -0.152998,-0.24755 1.193865,-0.50378 2.993027,-0.56938 1.799163,-0.0657 5.405973,-0.33965 8.015128,-0.60898 4.04639,-0.41769 4.74393,-0.32779 4.74393,0.61137 0,0.93541 -1.16401,1.09474 -7.736955,1.05907 -4.255326,-0.023 -7.862133,-0.24452 -8.01513,-0.49208 z m 7.10348,-13.09938 c 0.82688,-0.57917 2.066995,-2.5558 2.755815,-4.39252 0.68882,-1.83672 1.55622,-3.54743 1.92755,-3.80158 1.2572,-0.86043 2.54352,0.24522 3.32678,2.85952 1.33821,4.46654 2.82797,5.8314 6.77948,6.21109 1.9439,0.18678 4.67139,-0.0357 6.0611,-0.4943 2.33932,-0.77204 2.63531,-1.19843 3.99033,-5.74836 0.80498,-2.70296 1.36353,-5.43408 1.24123,-6.06917 -0.12231,-0.63508 -1.01137,-1.37423 -1.9757,-1.64255 -3.08594,-0.85867 -10.76872,-0.6435 -14.73792,0.41276 -3.41942,0.90995 -4.3199,0.90046 -8.082245,-0.0851 -2.93915,-0.76995 -6.005257,-1.00214 -10.025354,-0.75919 -3.185201,0.1925 -5.632508,0.0931 -5.43846,-0.22087 0.194048,-0.31398 1.953606,-1.10256 3.91013,-1.75242 2.975216,-0.9882 5.762676,-1.1361 17.034719,-0.9038 12.38469,0.25522 13.72635,0.40826 16.54794,1.88756 2.06044,1.08024 3.30325,1.37709 3.77797,0.90237 0.42886,-0.42886 0.52351,-2.45773 0.24036,-5.15226 -0.25689,-2.44466 -0.48695,-5.17649 -0.51122,-6.07075 -0.0271,-0.99942 -0.62588,-1.83712 -1.55389,-2.17406 -2.49193,-0.90477 -19.41947,-2.53512 -24.777875,-2.38645 -3.306029,0.0917 -7.10864,0.83177 -11.244855,2.1884 l -6.249612,2.04979 -0.203063,6.06944 c -0.163544,4.88825 -0.0075,6.06945 0.801613,6.06945 0.589106,0 1.157605,0.94479 1.374395,2.28411 1.570911,9.70505 3.249743,11.77196 9.561712,11.77196 2.3856,0 4.56468,-0.41957 5.46907,-1.05303 z m -9.624291,-0.55405 c -2.057182,-1.03449 -3.887594,-5.94524 -3.21495,-8.62527 0.250255,-0.9971 1.218802,-2.05999 2.226126,-2.44297 2.388615,-0.90815 7.989812,-0.85926 10.723195,0.0936 1.857165,0.6474 2.210805,1.12802 2.197855,2.98691 -0.008,1.21845 -0.604595,3.51266 -1.324665,5.09824 -1.03396,2.27672 -1.78804,2.97863 -3.586436,3.33831 -3.300972,0.6602 -5.036344,0.54926 -7.021125,-0.44883 z m 22.375026,0.10776 c -2.06768,-0.75734 -4.10213,-4.86647 -4.10213,-8.2854 0,-1.63995 0.42124,-2.17228 2.21328,-2.79699 2.96451,-1.03343 8.96657,-0.96075 11.13998,0.1349 2.11375,1.06557 2.52133,3.19081 1.38814,7.23817 -0.6675,2.38407 -1.29346,3.17472 -2.9785,3.76213 -2.56048,0.89258 -5.12795,0.87488 -7.66077,-0.0528 z M 91.661819,115.53996 c 5.261736,-1.47469 7.511646,-1.46054 22.704711,0.14278 4.37021,0.46119 8.09645,0.68791 8.28053,0.50382 0.18408,-0.18408 0.0119,-1.72135 -0.38269,-3.41615 -0.39455,-1.6948 -0.89169,-4.25813 -1.10475,-5.69628 -0.44959,-3.03469 -3.06783,-6.43324 -6.2133,-8.065014 -1.39264,-0.72245 -4.66347,-1.26115 -8.91001,-1.46745 -5.78315,-0.280952 -7.093245,-0.127856 -9.487855,1.10874 -4.540371,2.344694 -8.681409,7.156884 -10.484555,12.183834 -0.883263,2.46243 -1.856914,5.08143 -2.163668,5.82001 -0.487097,1.1728 -0.342443,1.27459 1.142114,0.80369 0.934916,-0.29655 3.91368,-1.15964 6.619473,-1.91798 z"
       id="path1298" />
  </g>
</svg>
